<?xml version="1.0" encoding="utf-8"?>
<!-- Generator: Adobe Illustrator 21.1.0, SVG Export Plug-In . SVG Version: 6.00 Build 0)  -->
<svg version="1.1" id="Layer_1" xmlns="http://www.w3.org/2000/svg" xmlns:xlink="http://www.w3.org/1999/xlink" x="0px" y="0px"
	 viewBox="0 0 387 142.4" style="enable-background:new 0 0 387 142.4;" xml:space="preserve">
<style type="text/css">
	.st0{fill:#FFFFFF;}
</style>
<g>
	<path class="st0" d="M110.1,36.3c0,14.1,8.3,23,25.2,30.1l0,0c6.9,2.9,10.8,3.9,10.8,7.2l0,0c0,2.3-2.4,4-6.8,4l0,0
		c-9.1,0-18.7-5.3-27.1-15.7l0,0L93.8,88.8c14.1,12.4,29.9,18.7,45.9,18.7l0,0c26,0,44.2-16.7,44.2-37.7l0,0
		c0-14.7-7.1-22.3-22-29.1l0,0c-8.1-3.6-13.1-4.9-13.1-9.1l0,0c0-2.6,2.2-4.5,5.8-4.5l0,0c5.8,0,12.5,3.6,20.7,10.8l0,0l14.4-25.2
		c-10.2-8.6-22.4-12.9-37.1-12.9C126.5-0.1,110.1,15.5,110.1,36.3L110.1,36.3z"/>
	<path class="st0" d="M67.2,2.2H27.7l-19,102.9h37.4l5.8-31.5h14.7c29.9,0,46.2-14.5,46.2-38l0,0C112.7,13.3,97.6,2.2,67.2,2.2
		L67.2,2.2z M60.2,29.1h1.7c9.4,0,13.7,2.2,13.7,7.5l0,0c0,6.9-5.2,10.1-16,10.1l0,0h-2.7L60.2,29.1z"/>
	<path class="st0" d="M222.5,2.2h-27.8l-19,102.9h32.4c22.7,0,39.7-3,53.8-13.5l0,0c13.7-10.2,21.4-26.1,21.4-43.3l0,0
		c0-18.4-8.8-32.8-25-40.9l0,0C250.6,3.7,238.8,2.2,222.5,2.2L222.5,2.2z M226.2,33.2h0.7c11.7,0,18.7,6.8,18.7,17.4l0,0
		c0,14.4-9.6,23.6-26.5,23.6l0,0h-0.4L226.2,33.2z"/>
	<path class="st0" d="M326.2,2.2h-35.4l-19,102.9h51.1c28.8,0,44.6-13,44.6-31.8l0,0c0-11.1-7.3-19.1-19.9-21l0,0
		c14.4-1.6,22-9.4,22-22C369.7,12.2,355,2.2,326.2,2.2L326.2,2.2z M321.6,27.3h4.9c5.3,0,8.3,2.3,8.3,6l0,0c0,5-4.6,7-13.8,7l0,0
		h-1.9L321.6,27.3L321.6,27.3z M314.7,64.4h5.8c7.2,0,10.6,2,10.6,7.1l0,0c0,6.8-5.2,8.6-16.7,8.6l0,0h-2.6L314.7,64.4z"/>
	<path class="st0" d="M8.6,137.9c2.4,1.3,5.7,2.2,8.7,2.2c5.1,0,10.6-2.8,11.5-8.4c0.6-4-1.7-5.9-5.2-6.7l-1.9-0.4
		c-0.6-0.2-1.7-0.3-1.5-1.1c0.2-1,1.3-1.2,2-1.2c1.8,0,3.4,0.8,4.7,1.8l3.3-6c-2.1-1.4-4.4-2.1-7.1-2.1c-5.1,0-10.7,3.1-11.6,8.7
		c-0.6,3.7,1.9,5.7,5.2,6.2l1.7,0.3c0.8,0.2,1.9,0.2,1.7,1.3c-0.2,1.1-1.6,1.4-2.4,1.4c-2,0-3.7-1-5-2.2l-0.4-0.3L8.6,137.9
		L8.6,137.9z M46.1,115.8c7.1,0,12.3,4.8,11.1,12.2c-1.2,7.5-7.7,12.1-14.9,12.1c-7.2,0-12.3-4.5-11.1-12.1
		C32.4,120.6,39,115.8,46.1,115.8L46.1,115.8z M44.9,123.5c-2.7,0-4.7,2.1-5.1,4.6c-0.4,2.7,1.1,4.5,3.7,4.5c2.6,0,4.7-1.8,5.1-4.5
		C49,125.6,47.6,123.5,44.9,123.5L44.9,123.5z M79.2,116.8c-1.7-0.6-3.6-1-5.6-1c-6.9,0-13.2,5.5-14.2,12.4
		c-1.1,6.7,3.4,11.9,10.1,11.9c1.5,0,4.8-0.3,6.2-0.9l1.6-8.8c-1.6,1.3-3.3,2.2-5.2,2.2c-2.6,0-4.5-2-4-4.6c0.4-2.6,2.8-4.6,5.4-4.6
		c1.9,0,3.5,1.1,4.6,2.4L79.2,116.8L79.2,116.8z M78.9,139.7l3.7-23.5h8.5l-3.7,23.5H78.9L78.9,139.7z M99.5,136.8h6.5l0.3,2.9h9
		l-4.7-23.5h-9.5l-11.9,23.5h9.1L99.5,136.8L99.5,136.8z M101.9,131.2l2.7-7.2h0.3c0,1,0,2,0.1,3l0.3,4.2H101.9L101.9,131.2z
		 M117.1,139.7h15.7l1.2-7.5h-7.2l2.5-16h-8.5L117.1,139.7z"/>
	<path class="st0" d="M148.6,139.7h10.8c6.9,0,12.5-4.4,13.6-11.4c1.4-8.6-4.1-12.1-12-12.1h-8.7L148.6,139.7L148.6,139.7z
		 M159.7,123.5h0.5c3.1,0,4.8,1.4,4.3,4.7c-0.5,3.1-2.9,4.4-5.7,4.4h-0.5L159.7,123.5L159.7,123.5z M174.2,139.7l3.7-23.5h15.8
		l-1,6.4h-7.2l-0.4,2.2h6.6l-1,6.1h-6.6l-0.4,2.3h7.5l-1,6.4H174.2L174.2,139.7z M192.8,139.7h8.3l2.6-10c0.2-0.9,0.5-1.9,0.7-2.8
		h0.3c-0.1,1,0,1.9,0.1,2.9l1.5,10h5l5.1-10.5c0.4-0.7,0.7-1.6,0.9-2.3h0.2l-0.9,12.9h8.3l-0.1-23.5h-8.7l-4.1,9.2
		c-0.4,1-0.8,2.1-1.1,3.1h-0.2l-1.3-12.3h-8.8L192.8,139.7L192.8,139.7z M243.5,115.8c-7.1,0-13.8,4.8-14.9,12.2
		c-1.2,7.5,3.9,12.1,11.1,12.1c7.2,0,13.7-4.5,14.9-12.1C255.8,120.6,250.7,115.8,243.5,115.8L243.5,115.8z M242.3,123.5
		c2.7,0,4.1,2.1,3.7,4.6c-0.4,2.7-2.5,4.5-5.1,4.5c-2.6,0-4.1-1.8-3.7-4.5C237.6,125.6,239.6,123.5,242.3,123.5L242.3,123.5z
		 M276.6,116.8l-1.2,9c-1.2-1.3-2.7-2.4-4.6-2.4c-2.6,0-5,2-5.4,4.6c-0.4,2.6,1.5,4.6,4,4.6c2,0,3.7-0.8,5.2-2.2l-1.6,8.8
		c-1.5,0.7-4.7,0.9-6.2,0.9c-6.7,0-11.1-5.2-10.1-11.9c1.1-6.9,7.4-12.4,14.2-12.4C272.9,115.8,274.9,116.1,276.6,116.8L276.6,116.8
		z M276.2,139.7h8.4l1.2-7.5h0.2l2.5,7.5h9.9l-3.9-7.6c-0.4-0.7-0.8-1.1-1.2-1.4l0-0.2c3.4-1.1,5-2.6,5.5-6.1
		c0.9-5.9-3.2-8.2-8.5-8.2H280L276.2,139.7L276.2,139.7z M287.3,122.6h0.7c1.5,0,2.7,0.2,2.4,2c-0.3,1.7-1.7,2-3.1,2h-0.6
		L287.3,122.6L287.3,122.6z M307.9,136.8l-1.1,2.9h-9l11.9-23.5h9.5l4.7,23.5h-9.1l-0.3-2.9H307.9L307.9,136.8z M310.3,131.2h3.4
		l-0.3-4.2c-0.1-1-0.1-2-0.1-3H313L310.3,131.2L310.3,131.2z M346.3,116.8c-1.7-0.6-3.6-1-5.6-1c-6.9,0-13.2,5.5-14.2,12.4
		c-1.1,6.7,3.4,11.9,10.1,11.9c1.5,0,4.8-0.3,6.2-0.9l1.6-8.8c-1.6,1.3-3.3,2.2-5.2,2.2c-2.6,0-4.5-2-4-4.6c0.4-2.6,2.8-4.6,5.4-4.6
		c1.9,0,3.5,1.1,4.6,2.4L346.3,116.8L346.3,116.8z M346,139.7l3.7-23.5h8.5l-3.7,23.5H346L346,139.7z M366.6,136.8h6.5l0.3,2.9h9
		l-4.7-23.5h-9.5l-11.9,23.5h9L366.6,136.8L366.6,136.8z M369,131.2l2.7-7.2h0.3c0,1,0,2,0.1,3l0.3,4.2H369z"/>
</g>
</svg>
